<?xml version="1.0" standalone="no"?>
<!DOCTYPE svg PUBLIC "-//W3C//DTD SVG 20010904//EN"
 "http://www.w3.org/TR/2001/REC-SVG-20010904/DTD/svg10.dtd">
<svg version="1.0" xmlns="http://www.w3.org/2000/svg"
 width="1080.000000pt" height="1620.000000pt" viewBox="0 0 1080.000000 1620.000000"
 preserveAspectRatio="xMidYMid meet">

<g transform="translate(0.000000,1620.000000) scale(0.100000,-0.100000)"
fill="#000000" stroke="none">
<path d="M3825 13774 c-221 -53 -422 -210 -519 -407 -62 -127 -70 -162 -111
-482 -19 -154 -39 -307 -44 -340 -6 -33 -15 -98 -20 -145 -6 -47 -25 -188 -41
-315 -17 -126 -35 -264 -40 -305 -5 -41 -14 -111 -20 -155 -59 -427 -51 -703
29 -1040 56 -234 181 -514 311 -700 27 -38 39 -63 34 -71 -5 -6 -51 -58 -102
-115 -440 -489 -706 -1109 -741 -1730 -29 -511 89 -987 343 -1378 102 -158
137 -199 697 -841 338 -387 467 -509 671 -636 291 -181 603 -279 960 -304 76
-5 160 -6 188 -3 50 6 50 6 50 -23 0 -53 -50 -217 -95 -313 -148 -312 -430
-567 -730 -661 -128 -39 -338 -63 -389 -44 -22 8 -21 72 5 259 40 301 41 315
25 421 -26 178 -49 211 -465 685 -80 91 -215 245 -300 342 -205 237 -265 283
-422 327 -131 36 -314 20 -451 -39 -74 -31 -187 -113 -249 -177 -129 -137
-195 -278 -220 -472 -6 -48 -15 -116 -20 -152 -32 -234 -41 -362 -35 -530 12
-366 78 -643 225 -945 93 -189 196 -340 381 -552 85 -98 273 -315 419 -483
346 -399 461 -510 666 -645 229 -150 485 -247 800 -301 124 -21 479 -24 600
-5 356 56 601 136 880 288 253 137 434 273 646 482 336 334 547 662 704 1096
139 384 190 778 150 1145 -35 318 -96 529 -229 799 -41 84 -106 194 -140 240
-14 19 -26 41 -26 49 0 8 32 49 71 91 370 395 626 902 729 1444 6 26 21 136
35 245 14 108 30 229 35 267 36 274 56 424 86 660 19 149 39 303 44 343 24
175 30 226 50 382 18 152 24 197 50 380 20 144 76 571 105 795 13 105 29 226
35 270 6 44 15 116 21 160 34 269 93 722 124 960 9 66 20 152 25 190 5 39 16
122 25 185 34 258 39 308 37 365 -7 174 -54 283 -187 436 -97 111 -162 185
-300 344 -255 294 -329 379 -369 422 -21 23 -45 51 -53 62 -22 32 -128 110
-185 136 -98 45 -172 58 -293 52 -224 -10 -409 -107 -563 -295 -97 -118 -146
-248 -172 -457 -6 -44 -19 -147 -30 -230 -10 -82 -28 -221 -39 -307 -12 -87
-30 -229 -41 -315 -76 -583 -102 -773 -111 -808 -59 -233 -175 -437 -343 -607
-160 -161 -376 -281 -576 -321 -100 -20 -217 -29 -260 -19 -54 12 -55 -12 46
752 22 171 81 624 114 888 26 205 29 245 20 323 -18 162 -55 233 -216 419
-706 815 -760 872 -879 926 -118 54 -280 69 -410 38z m219 -134 c214 -73 316
-264 276 -514 -10 -63 -39 -274 -65 -481 -23 -179 -61 -466 -89 -685 -75 -576
-76 -595 -51 -763 32 -212 108 -386 235 -538 137 -164 310 -274 522 -331 71
-19 108 -22 258 -23 186 0 254 10 397 59 451 154 817 562 932 1041 12 50 30
162 42 250 11 88 24 194 30 235 5 41 14 109 19 150 8 66 33 256 110 845 47
363 50 378 103 484 32 64 136 171 208 214 99 58 185 80 294 75 122 -7 188 -33
269 -109 71 -66 111 -141 127 -239 10 -63 8 -87 -56 -575 -15 -110 -30 -231
-35 -270 -5 -38 -28 -209 -50 -380 -23 -170 -52 -395 -66 -500 -14 -104 -29
-221 -34 -260 -32 -246 -68 -517 -106 -815 -13 -107 -36 -278 -49 -380 -13
-102 -31 -239 -40 -305 -9 -66 -20 -154 -26 -195 -5 -41 -18 -142 -29 -225
-10 -82 -26 -204 -35 -270 -9 -66 -20 -154 -26 -195 -5 -41 -14 -106 -19 -145
-5 -38 -16 -124 -25 -190 -54 -410 -69 -513 -95 -630 -100 -458 -342 -906
-676 -1254 l-101 -105 -105 98 c-198 185 -408 322 -610 398 -48 18 -88 38 -88
43 0 6 39 39 86 75 157 118 342 338 429 511 73 143 125 320 150 504 8 66 20
154 25 195 6 41 21 161 35 265 13 105 31 244 40 310 9 66 27 207 41 314 14
107 27 198 30 202 2 4 53 41 112 82 144 100 282 214 282 234 0 18 -28 53 -42
53 -5 0 -53 -35 -106 -78 -397 -322 -842 -503 -1328 -543 -370 -29 -753 56
-1076 239 -455 258 -784 726 -893 1268 -59 293 -59 535 0 964 31 233 90 680
116 885 7 60 31 243 69 530 29 222 177 400 390 472 87 29 214 31 294 3z m-463
-3866 c64 -70 224 -203 323 -269 107 -71 318 -179 401 -205 72 -22 71 -27 -13
-87 -239 -171 -421 -402 -527 -668 -109 -274 -128 -596 -49 -858 86 -289 303
-536 566 -645 130 -54 221 -74 371 -79 207 -8 310 11 549 103 l47 18 93 -31
c262 -87 493 -235 714 -458 528 -534 685 -1375 409 -2201 -217 -649 -696
-1210 -1307 -1527 -531 -277 -1139 -332 -1661 -150 -246 85 -452 212 -646 398
-288 277 -463 605 -552 1033 -25 125 -31 178 -35 352 -4 116 -2 244 4 295 29
253 64 480 82 528 64 170 215 307 390 352 71 19 204 16 273 -4 63 -20 159 -92
199 -151 82 -122 89 -209 44 -545 -23 -172 -27 -231 -22 -323 27 -492 321
-869 773 -989 85 -22 119 -26 253 -26 111 0 177 4 235 17 281 61 536 209 735
423 281 304 430 718 392 1087 -18 172 -56 279 -145 410 -79 117 -194 213 -331
276 -151 70 -270 89 -556 88 -348 -1 -570 48 -855 187 -373 182 -662 477 -844
860 -358 753 -223 1726 342 2474 108 143 290 341 312 341 7 0 22 -12 36 -26z
m1879 -1601 c47 -8 166 -18 265 -21 l180 -7 -3 -45 c-8 -108 -71 -279 -151
-415 -162 -273 -427 -482 -718 -566 -64 -19 -103 -23 -218 -23 l-140 -1 2 80
c8 271 143 578 345 785 131 135 285 245 328 234 14 -3 63 -13 110 -21z"/>
</g>
</svg>
